<svg width="32" height="32" viewBox="0 0 32 32" fill="none" xmlns="http://www.w3.org/2000/svg">
<rect x="0.5" y="0.5" width="31" height="31" rx="7.5" fill="#223325"/>
<rect x="0.5" y="0.5" width="31" height="31" rx="7.5" stroke="#61B971"/>
<g filter="url(#filter0_d_662_260)">
<path d="M13.508 8.50231C13.575 8.50765 13.9124 8.84312 13.9783 8.91548C14.5939 9.59158 15.0531 10.4725 15.4109 11.3209C15.4988 11.5293 15.5647 11.7926 15.6674 11.989C15.7139 12.0778 15.7776 12.1873 15.8925 12.1326C16.0074 12.0778 16.328 11.3078 16.4168 11.1417C16.9566 10.1315 17.721 9.21847 18.6729 8.61427C20.7082 9.23695 22.1247 10.8948 23.0008 12.8412C23.5438 14.048 24.0388 15.5892 24.2527 16.9038C24.29 17.1322 24.2953 17.5174 24.3554 17.7097C24.3989 17.8489 24.6107 18.1167 24.6912 18.2732C25.0868 19.0412 25.2975 19.9568 25.3292 20.8258C24.6129 20.2027 24.7592 20.8749 24.7316 21.3948C24.6882 22.2163 24.4417 23.0589 24.0246 23.7539L23.8325 23.3968C23.7202 23.278 23.6198 23.2158 23.5015 23.3654C23.3887 23.5081 23.2958 23.7225 23.1679 23.8866C21.0099 26.6578 15.7134 26.8657 12.6577 26.0291C11.3599 25.6738 9.87239 24.9559 9.03767 23.8292C8.97027 23.7381 8.73426 23.3297 8.68867 23.3018C8.44714 23.154 8.22251 23.7893 8.19034 23.7646C7.96652 23.3307 7.76728 22.8795 7.65238 22.3984C7.57642 22.0809 7.5009 21.6523 7.48314 21.3278C7.47223 21.129 7.52379 20.8126 7.43627 20.6419C7.34875 20.4711 7.06076 20.6833 6.96169 20.7623C6.92788 20.7893 6.92808 20.86 6.88443 20.8146C6.9514 19.9687 7.12835 19.0998 7.50131 18.3397C7.56914 18.2015 7.84132 17.8246 7.86379 17.7373C7.89888 17.6018 7.89161 17.3865 7.91514 17.2342C8.39188 14.1407 10.0389 9.7118 13.149 8.60982C13.2164 8.58599 13.4566 8.49831 13.508 8.50231ZM23.6916 24.7457C23.6941 24.7493 23.6966 24.7528 23.6991 24.7561C23.6941 24.7494 23.6891 24.7422 23.684 24.7345L23.6916 24.7457ZM7.63138 23.8546L7.65512 23.8982C7.63913 23.8692 7.62344 23.8401 7.60801 23.8107C7.61573 23.8254 7.62352 23.84 7.63138 23.8546ZM19.6985 19.0384C18.7788 17.6962 17.2936 16.9386 15.6968 17.0706V17.0708H15.697C13.5059 17.2518 11.2395 19.7238 11.7098 22.074C12.1638 24.3425 14.9307 23.5547 16.4619 23.6081C17.3687 23.6397 18.2766 23.8623 19.1625 23.5482C21.13 22.8503 20.6539 20.4326 19.6985 19.0384ZM8.85383 17.5984C8.8194 17.5637 8.81662 17.6115 8.80614 17.6274C8.35166 18.3166 8.29048 19.586 8.43277 20.3852C8.72313 22.0166 9.99735 23.3719 11.6569 23.3196C11.5897 23.1709 11.4787 23.0491 11.404 22.9039C11.3113 22.7241 11.1988 22.428 11.1532 22.2299C11.1076 22.0317 11.1143 21.8251 11.0689 21.6275C9.93956 21.3683 9.24607 20.2676 8.99272 19.157C8.89237 18.7173 8.81876 18.1476 8.83117 17.6971C8.83224 17.6597 8.85726 17.602 8.85383 17.5984ZM23.4039 17.5982C23.3739 17.5666 23.3645 17.6009 23.3609 17.6316C23.3523 17.7044 23.3827 17.7776 23.3838 17.8531C23.3887 18.1772 23.3468 18.5958 23.2905 18.9157C23.0688 20.1737 22.3712 21.3543 21.1024 21.6484C21.1096 22.1138 20.9625 22.5849 20.7384 22.9836L20.5157 23.3194C23.0142 23.3959 24.3867 20.6964 23.7144 18.3774C23.6356 18.1058 23.4995 17.8618 23.4039 17.5982ZM14.0693 18.8055C14.7056 18.6806 14.941 19.6165 14.9923 20.1054C15.0655 20.8024 14.8175 22.3309 13.995 22.4681C13.2735 22.5885 13.0514 21.3485 13.0696 20.8151C13.0878 20.2817 13.4499 18.9271 14.0693 18.8053V18.8055ZM17.8994 18.8055C18.4249 18.7035 18.7938 19.4266 18.9325 19.8574C19.145 20.5168 19.2613 22.0426 18.5336 22.4039C17.7655 22.7855 17.3178 21.509 17.2444 20.9235C17.176 20.3774 17.2027 18.9406 17.8994 18.8055ZM25.1373 22.3402C25.1373 22.3403 25.1373 22.3403 25.1372 22.3404C25.1372 22.3403 25.1372 22.3403 25.1372 22.3403C25.1372 22.3402 25.1373 22.3401 25.1373 22.34V22.3402ZM25.1373 22.341C25.1373 22.3409 25.1373 22.3407 25.1373 22.3407V22.3402C25.1373 22.3402 25.1373 22.3401 25.1373 22.34L25.1373 22.341ZM25.879 21.6645C25.8767 21.6784 25.8742 21.6914 25.8714 21.7036C25.8728 21.6975 25.8741 21.6912 25.8754 21.6847L25.879 21.6645ZM6.96859 21.5597C6.95817 21.5573 6.92596 21.5813 6.88709 21.6144C6.89416 21.6084 6.90097 21.6027 6.90751 21.5974C6.9206 21.5867 6.93244 21.5777 6.94231 21.5712C6.94971 21.5663 6.95599 21.5627 6.96086 21.5609C6.96409 21.5597 6.9667 21.5593 6.96859 21.5597ZM25.3085 21.5617L25.3009 21.5589C25.3033 21.5597 25.3058 21.5606 25.3085 21.5617ZM25.3296 20.8262C25.3296 20.8261 25.3295 20.8261 25.3294 20.826H25.3296V20.8262ZM25.3294 20.826H25.3292C25.3292 20.8259 25.3292 20.8259 25.3292 20.8258C25.3293 20.8259 25.3293 20.8259 25.3294 20.826ZM25.2261 18.1164C25.2316 18.1273 25.2367 18.1378 25.2413 18.1479C25.239 18.1428 25.2365 18.1377 25.234 18.1325L25.2261 18.1164ZM21.1255 14.6816C21.0307 14.278 20.711 13.6471 20.2322 13.7081C19.0987 13.8524 19.1285 16.7335 20.1643 16.8838C21.1516 17.0271 21.2885 15.3747 21.1255 14.6816ZM12.8774 15.026C12.8453 14.5385 12.4978 13.626 11.9086 13.7081C10.8348 13.8577 10.7822 16.6476 11.8313 16.8713C12.6962 17.0559 12.9185 15.6511 12.8774 15.026ZM25.651 7.82485L25.7576 9.12764C25.7645 9.97427 25.7159 10.8559 25.512 11.6767C25.2946 12.5511 24.8807 13.4461 23.9185 13.5681L23.7914 13.1491C24.5386 12.6703 24.7988 11.6054 24.8989 10.7495C24.9599 10.227 24.9807 9.54061 24.9205 9.019C24.9077 8.90837 24.8859 8.80418 24.7616 8.78369C24.4967 8.74006 23.9784 8.82798 23.7033 8.88208C22.9785 9.02478 22.2951 9.33871 21.743 9.8494L20.9222 9.10514C21.494 8.5909 22.1907 8.25386 22.9244 8.07153C23.8156 7.85003 24.738 7.82217 25.651 7.82485ZM6.60582 7.83488C8.21298 7.80193 9.96932 7.9275 11.2502 9.0386C11.1838 9.09849 11.1002 9.15569 11.0364 9.21646C10.9234 9.32398 10.8154 9.44443 10.7084 9.55417H10.7081V9.55396C10.6279 9.63633 10.5496 9.72005 10.4696 9.80264C9.79556 9.23005 8.94071 8.89167 8.07262 8.80507C7.90101 8.78792 7.63741 8.75901 7.47266 8.78149C7.33679 8.79997 7.32567 8.96623 7.31369 9.08355C7.23794 9.81375 7.30018 10.8055 7.47777 11.5168C7.63076 12.1299 7.90744 12.7974 8.4274 13.1587C8.38525 13.2155 8.28234 13.5565 8.2451 13.5625C8.0506 13.5171 7.8396 13.43 7.67014 13.32C6.43125 12.5168 6.41413 9.54686 6.54316 8.21491C6.54893 8.1557 6.57993 7.85436 6.60582 7.83488ZM24.3235 9.50096C24.3211 9.86607 24.3361 10.2332 24.3026 10.5967C24.2476 11.1914 24.0424 12.0914 23.6388 12.534C23.6286 12.5451 23.549 12.6277 23.5327 12.6117C23.2742 12.0077 22.9653 11.42 22.5957 10.8815C22.4571 10.6793 22.2895 10.501 22.1652 10.2886C22.762 9.76723 23.5545 9.50678 24.3242 9.42819L24.3235 9.50096ZM7.93356 9.42797C8.68867 9.51769 9.4515 9.7619 10.0481 10.2626C9.51077 10.9812 9.02912 11.7506 8.68226 12.5892C8.65273 12.5954 8.65505 12.5939 8.63794 12.575C7.93974 11.8045 7.88692 10.4291 7.93356 9.42797ZM16.3432 5.88829C16.6949 6.04813 17.0172 6.35423 17.2626 6.65678C17.6445 7.12762 17.906 7.70264 18.0657 8.29326C17.1481 8.98027 16.441 9.87966 15.8831 10.8968C15.4486 10.0017 14.9485 9.12788 14.2999 8.38143C14.1234 8.17818 13.9332 7.97959 13.7327 7.80282H13.7325C13.7186 7.77544 13.74 7.76808 13.7967 7.78054C13.9571 7.8195 14.121 7.83823 14.2787 7.89121C14.378 7.92461 14.9652 8.2298 14.9947 8.20353C14.9637 7.98136 14.9643 7.75608 14.9207 7.53502C14.865 7.25274 14.7527 6.95817 14.6314 6.7006C14.7786 6.68146 14.9444 6.78943 15.0734 6.86401C15.4303 7.07015 15.7372 7.35958 15.9999 7.68104L16.1394 7.89164C16.5167 7.33086 16.4775 6.52899 16.3432 5.88829ZM19.991 8.49123C20.0304 8.51622 20.0861 8.55349 20.1433 8.59147C20.1092 8.56878 20.0755 8.54638 20.0456 8.52667L19.991 8.49123ZM13.6897 7.75852C13.7357 7.7396 13.7706 7.77431 13.7967 7.78054C13.74 7.76808 13.7186 7.77544 13.7325 7.80282L13.7267 7.79859C13.7119 7.7891 13.6889 7.7819 13.6897 7.75852ZM6.2705 7.16482C6.25741 7.16733 6.2438 7.17039 6.23024 7.17403C6.23476 7.17282 6.23929 7.17166 6.2438 7.17057L6.2705 7.16482ZM6.81802 7.14249L6.88513 7.14353C6.86259 7.14312 6.84 7.14273 6.81744 7.14245C6.81763 7.14245 6.81782 7.14249 6.81802 7.14249Z" fill="#61B971"/>
</g>
<defs>
<filter id="filter0_d_662_260" x="2" y="1" width="28" height="30" filterUnits="userSpaceOnUse" color-interpolation-filters="sRGB">
<feFlood flood-opacity="0" result="BackgroundImageFix"/>
<feColorMatrix in="SourceAlpha" type="matrix" values="0 0 0 0 0 0 0 0 0 0 0 0 0 0 0 0 0 0 127 0" result="hardAlpha"/>
<feOffset/>
<feGaussianBlur stdDeviation="2"/>
<feComposite in2="hardAlpha" operator="out"/>
<feColorMatrix type="matrix" values="0 0 0 0 0.380392 0 0 0 0 0.72549 0 0 0 0 0.443137 0 0 0 0.35 0"/>
<feBlend mode="normal" in2="BackgroundImageFix" result="effect1_dropShadow_662_260"/>
<feBlend mode="normal" in="SourceGraphic" in2="effect1_dropShadow_662_260" result="shape"/>
</filter>
</defs>
</svg>
